<svg xmlns="http://www.w3.org/2000/svg" width="300" height="83" aria-label="Kickstart – Frontend Starter Kit"><g fill="#c36"><path d="M27.344 8.906c.78-.5 1.36-.86 1.734-1.094.375-.218.735-.453 1.094-.67.344-.22.765-.517 1.234-.876.47-.344 1.235-.89 2.266-1.64.406-.282.797-.58 1.172-.876.375-.28.75-.594 1.125-.922 1.06-.875 1.92-1.515 2.56-1.922C39.17.5 39.81.28 40.43.28c.813 0 1.657.267 2.532.782.873.516 1.342 1.235 1.435 2.14 0 .704-.25 1.267-.718 1.673-.49.406-1.08.86-1.77 1.36l-11.9 8.625c-.22.155-.44.36-.69.577-.25.234-.47.453-.67.656-.35.218-1.08.687-2.24 1.406-1.16.72-2.37 1.51-3.62 2.37-1.27.87-2.39 1.7-3.39 2.51s-1.49 1.42-1.49 1.83c0 .25.22.39.68.42.98.97 1.95 1.86 2.9 2.67.95.83 1.89 1.66 2.79 2.48 1.56 1.4 3.02 2.72 4.34 3.93 1.31 1.22 2.45 2.36 3.4 3.4.94 1.06 1.69 2.01 2.22 2.89.53.87.81 1.66.81 2.34 0 1.28-.85 2.3-2.53 3.05-1.08-.25-2.02-.63-2.8-1.11-.79-.52-1.57-1.09-2.33-1.77-.77-.69-1.58-1.46-2.42-2.3-.85-.85-1.85-1.75-3-2.7-.54-.5-1.11-1-1.71-1.52-.61-.52-1.22-1.06-1.83-1.66l-1.3-1.11c-1.05-1.03-1.96-1.84-2.74-2.44-.78-.6-1.36-.99-1.73-1.16l-.31.06-.56.37-.06.12c-.91 3.47-1.64 6.19-2.2 8.15-.56 1.97-1.05 3.42-1.49 4.39-.44.97-.87 1.58-1.33 1.86-.47.26-1.02.47-1.67.59H4.3c-.457 0-.926-.06-1.39-.15-.49-.11-1.05-.35-1.71-.72-.45-.45-.75-1.09-.872-1.92v-.61c.05-.66.09-1.19.15-1.58l.19-1.1c.06-.33.14-.7.22-1.11.08-.41.19-.97.31-1.69l1.61-7.24 1.39-6.39c.47-2.16.99-4.49 1.52-6.99s1.2-5.5 2-9.02v-.6c0-1.44.4-2.56 1.23-3.38.814-.81 1.876-1.22 3.16-1.22h.37c.08 0 .17 0 .28-.03.095-.02.19-.03.28-.03.487 0 1 .09 1.55.28.53.19 1.016.45 1.454.78.436.34.78.71 1.046 1.12.264.41.405.84.405 1.3v.29c0 .87-.11 1.73-.31 2.56s-.42 1.65-.67 2.47c-.216.7-.404 1.37-.56 2.01-.17.64-.28 1.23-.313 1.76 0 .04-.03.23-.09.56-.06.33-.124.68-.2 1.08-.09.4-.17.78-.25 1.12l-.184.7 12.39-8.61zM50.047 34.14c-.547 1.813-.938 3.33-1.156 4.547-.21 1.22-.48 2.204-.76 2.922-.29.71-.72 1.23-1.28 1.54-.56.31-1.45.47-2.69.47-.72 0-1.34-.16-1.9-.44-.56-.28-.82-.86-.82-1.74v-.31c0-.08 0-.13.03-.16.02-.02.03-.07.03-.16.21-1.24.41-2.36.6-3.38.19-1 .38-2 .58-2.97.21-.97.44-1.97.69-2.99.25-1 .53-2.11.88-3.32.66-2.44 1.24-4.69 1.74-6.75.5-2.06 1.08-4.3 1.74-6.71.16-.83.71-1.49 1.64-1.96.93-.47 1.89-.72 2.89-.72.74 0 1.41.19 2 .53.6.34.91.92.91 1.7 0 .09-.01.14-.03.15-.03.03-.03.08-.03.16-.05.04-.06.11-.06.18-.45 1.94-.84 3.59-1.17 4.95-.34 1.37-.64 2.56-.9 3.56-.26 1.01-.51 1.94-.73 2.76-.23.83-.47 1.66-.72 2.47L50.1 34.1zm8.547-27.343c-.203.75-.766 1.406-1.703 1.984-.93.58-2.39.97-4.36 1.18-1.37 0-2.46-.2-3.29-.64-.83-.44-1.24-1.13-1.24-2.1 0-.78.19-1.47.58-2.06.39-.59.88-1.11 1.46-1.51.58-.4 1.22-.71 1.93-.93.71-.2 1.38-.31 2-.31 1.41 0 2.58.22 3.53.66.94.44 1.43 1.11 1.43 2.02v.23c0-.03-.04.11-.12.44l-.2 1.05zM80.14 19.813c-.843-.157-1.703-.25-2.578-.25-1.86 0-3.61.328-5.234.968-1.64.65-3.187 1.47-4.625 2.5-.375.1-.812.35-1.328.79-.516.44-1.016.99-1.484 1.63-.48.64-.87 1.36-1.18 2.16-.31.81-.45 1.63-.45 2.46 0 1.03.24 1.94.74 2.72.03.42.22.86.53 1.31.31.45.72.88 1.24 1.27.52.41 1.18.74 1.96 1 .78.27 1.67.39 2.67.39h.88c.28 0 .58-.03.93-.12 1.28 0 2.55-.08 3.82-.23 1.25-.15 2.49-.39 3.69-.69.78-.2 1.6-.48 2.42-.86.81-.37 1.64-.75 2.47-1.12.83-.37 1.64-.72 2.45-1.05.82-.33 1.63-.56 2.46-.69h.31c.38 0 .71.13 1.02.35.31.22.56.52.78.89.21.38.38.78.5 1.22.13.44.19.86.19 1.27 0 .46-.09.89-.25 1.3-.17.43-.41.72-.69.88-1.37.91-2.62 1.67-3.75 2.27-1.14.6-2.28 1.11-3.43 1.52-1.15.41-2.37.76-3.62 1.08-1.26.31-2.7.61-4.31.9-1.75.36-3.39.55-4.95.55-1.75 0-3.36-.23-4.84-.67-1.5-.47-2.98-1.16-4.47-2.11-.95-.63-1.71-1.24-2.29-1.83-.58-.59-1.05-1.23-1.39-1.92-.34-.69-.62-1.42-.83-2.2-.22-.78-.44-1.67-.69-2.67 0-.31.03-.81.12-1.5.08-.69.17-1.39.28-2.14.1-.75.22-1.47.38-2.17.14-.7.27-1.25.39-1.62.96-2.72 2.64-5.14 5.07-7.25 2.41-2.11 5.63-3.84 9.64-5.2 1.19-.33 2.38-.56 3.56-.72 1.17-.14 2.3-.21 3.38-.21 3.64 0 6.89.67 9.74 2.02 2.85 1.35 5.05 3.14 6.58 5.36v.06c0 .13.08.25.25.38v.06c0 .37-.22.83-.65 1.34-.44.52-.98 1-1.63 1.45-.64.45-1.31.84-2.03 1.17-.72.35-1.36.5-1.89.5-.59 0-1-.11-1.25-.34-.25-.22-.59-.5-1.04-.84h-.13l-.06-.06-.07-.06c-.83-.56-1.59-1.08-2.3-1.52-.7-.44-1.47-.8-2.28-1.08h-.06c-.87-.2-1.73-.39-2.58-.56zm49.563 17.42c.375.345.563.673.563.986.078.21.125.53.125.93 0 .62-.17 1.2-.5 1.72-.34.51-.75.95-1.25 1.32s-1.04.65-1.64.86c-.59.2-1.17.31-1.7.31-.45 0-.78-.05-.98-.13-.72-.58-1.47-1.27-2.26-2.08-.81-.8-1.83-1.58-3.06-2.33-.22-.2-.43-.39-.65-.55-.23-.16-.45-.33-.65-.5-.22-.08-.54-.33-.98-.75-1.2-.91-2.38-1.78-3.52-2.63-1.14-.85-2.42-1.69-3.86-2.52-.71-.28-1.4-.49-2.06-.6-.65-.09-1.4-.15-2.22-.15h-.62l-.31.18-.65 3.48c-.14.75-.25 1.36-.33 1.86-.09.5-.2 1-.34 1.51-.16.51-.37 1.33-.66 2.44v.31c0 .78-.37 1.5-1.09 2.14-.72.62-1.64 1.04-2.75 1.26h-.12l-.61.09c-.22.02-.42.03-.62.03-.95 0-1.58-.19-1.86-.51-.3-.36-.44-.82-.44-1.35 0-1.03.24-2.86.74-5.52.5-2.64 1.25-6.04 2.25-10.18.03-.2.16-.75.36-1.64.21-.88.44-1.95.72-3.22.27-1.25.58-2.61.92-4.06.35-1.44.69-2.84 1-4.19.32-1.35.58-2.56.83-3.69.25-1.11.44-1.96.56-2.55.13-.49.22-.8.29-.92l.19-.38c.06-.12.14-.34.25-.67.09-.33.25-.97.47-1.94.61-1.06 1.14-1.77 1.61-2.1.45-.33.92-.5 1.42-.5h1.12c.41 0 .83.1 1.3.28.45.19.86.43 1.2.71.34.29.64.59.87.9.22.31.35.58.35.83 0 .34-.03.53-.06.56-.46.87-.84 1.67-1.12 2.42-.28.75-.53 1.51-.74 2.29-.12.2-.34.84-.66 1.92-.31 1.08-.64 2.28-.97 3.59-.33 1.33-.61 2.66-.86 3.97-.25 1.33-.37 2.34-.37 3.03 0 .6.1.88.31.88s.46-.22.75-.69c.03 0 .33-.16.86-.5.53-.33 1.21-.74 2.02-1.24l2.63-1.64c.95-.59 1.83-1.15 2.64-1.67s1.49-.94 2.02-1.28c.53-.33.83-.52.87-.57.73-.43 1.37-.81 1.92-1.11.53-.28 1.05-.57 1.55-.85s1.02-.6 1.58-.91c.56-.31 1.24-.7 2.02-1.2.58-.38 1.11-.63 1.61-.78.5-.14.94-.22 1.31-.22 1.24 0 2.16.45 2.78 1.34.63.89.94 1.78.94 2.69 0 .83-.42 1.61-1.25 2.36-.83.75-1.78 1.42-2.87 2.05-1.09.63-2.2 1.17-3.31 1.64-1.13.49-1.97.86-2.55 1.14-1.4.67-2.75 1.35-4.03 2.03-1.28.684-2.47 1.47-3.53 2.37v.5l1.58.97c.44.264.848.545 1.238.83.39.294.82.62 1.27 1 .457.37 1.02.83 1.69 1.36.69.53 1.42 1.11 2.19 1.7.76.594 1.42 1.126 1.968 1.58l5.27 3.843zM158.64 24.03c.157 0 .33 0 .5-.03.157-.016.33-.03.5-.03 1.36 0 2.532.202 3.532.593.984.39 1.797.92 2.437 1.578.64.66 1.11 1.43 1.4 2.3.28.88.43 1.8.43 2.78 0 1.46-.31 2.92-.91 4.41-.6 1.5-1.42 2.86-2.49 4.1-1.06 1.25-2.34 2.27-3.84 3.05-1.5.77-3.14 1.17-4.93 1.17h-.63c-1.16.24-2.21.41-3.13.52-.94.1-1.88.16-2.83.16-2.24 0-4.44-.4-6.61-1.17l-6.35-2.29c-.6-.58-.88-1.22-.88-1.92 0-.58.16-1.17.5-1.77.33-.59.75-1.14 1.26-1.61.51-.46 1.08-.86 1.7-1.14.62-.28 1.22-.43 1.81-.43.93 0 1.68.39 2.23 1.17h.06l.17.13c.33.25.72.5 1.16.72.44.22.89.39 1.39.52 1.61.47 3.25.69 4.91.69 1.03 0 2.05-.06 3.06-.22 1-.14 1.94-.39 2.81-.73.87-.34 1.64-.79 2.29-1.34.66-.53 1.19-1.22 1.56-2.05.28-.28.42-.57.42-.86 0-.5-.35-.89-1.03-1.18-.69-.28-1.32-.47-1.88-.56-.47-.07-.9-.12-1.34-.14-.44-.01-.87-.03-1.33-.03-2.31 0-4.69.19-7.09.53-2.42.35-4.68.52-6.79.52-2.36 0-4.24-.53-5.61-1.61-1.39-1.06-2.08-2.65-2.08-4.78 0-.12-.02-.25-.03-.39-.03-.14-.03-.28-.03-.4 0-1.44.39-2.87 1.17-4.28.78-1.41 1.85-2.69 3.18-3.87 1.31-1.17 2.86-2.22 4.61-3.12 1.75-.9 3.61-1.61 5.56-2.11 1.28-.33 2.42-.59 3.44-.81 1-.2 1.97-.31 2.89-.31 1.23 0 2.64.24 4.23.69 1.59.45 3.08 1.03 4.47 1.73 1.37.7 2.56 1.52 3.53 2.42.97.91 1.47 1.8 1.47 2.66 0 .72-.39 1.41-1.16 2.07-.77.66-2.08 1.23-3.94 1.72-.83-.36-1.64-.77-2.45-1.2-.81-.44-1.64-.84-2.48-1.23-.85-.39-1.71-.72-2.57-.97-.88-.25-1.77-.37-2.67-.37-1.03 0-2.19.14-3.47.4-1.28.28-2.5.65-3.63 1.15-1.15.5-2.11 1.11-2.93 1.86-.82.75-1.25 1.59-1.33 2.53.62.72 1.12 1.19 1.51 1.41.39.22 1.08.33 2.08.33.7 0 1.42-.03 2.14-.13.72-.08 1.48-.16 2.26-.23.7-.07 1.42-.14 2.14-.18.72-.03 1.48-.08 2.26-.13l5.26-.19zm44.516-7.81c-.22.905-.844 1.64-1.89 2.202-1.063.562-2.25.828-3.563.828h-.562c-.78.094-1.87.188-3.25.28-1.39.11-2.71.19-4 .22-1.45.344-2.64.563-3.54.688-.9.125-1.67.218-2.29.28-.62.063-1.15.126-1.61.204-.45.094-.92.234-1.42.437l-.19.12c-.09.75-.17 1.44-.25 2.03-.07.59-.17 1.2-.29 1.79-.12.59-.26 1.22-.4 1.86-.15.64-.31 1.32-.47 2.06 0 .12-.04.37-.12.72-.09.34-.18.76-.28 1.23-.11.48-.2 1-.28 1.56-.08.56-.11 1.09-.11 1.62 0 .67.08 1.25.27 1.75s.55.83 1.1.98c.33.09.58.12.74.12.71 0 1.46-.2 2.27-.61s1.61-.92 2.39-1.55 1.5-1.28 2.19-1.99 1.28-1.35 1.78-1.94c.16-.28.41-.58.74-.89.33-.31.69-.6 1.1-.88.39-.27.78-.49 1.17-.66.39-.15.75-.25 1.09-.25.45 0 .89.1 1.33.28.44.19.82.44 1.16.72.56.6.97 1.16 1.2 1.69.22.53.34 1.03.34 1.47 0 .88-.39 1.81-1.16 2.8-.77 1-1.75 1.98-2.94 2.95-1.2.97-2.53 1.9-4 2.78-1.47.89-2.94 1.67-4.38 2.36-1.45.67-2.78 1.21-4 1.64-1.22.4-2.18.62-2.87.62-.75 0-1.45-.1-2.09-.28-.64-.19-1.12-.46-1.44-.79-.92-1.28-1.56-2.69-1.91-4.22-.34-1.54-.51-3.08-.51-4.64 0-1.86.14-3.65.46-5.36.31-1.72.67-3.5 1.09-5.38l.19-.55c.08-.45.16-.91.25-1.36.08-.45.19-.91.32-1.38l-.25-.37c-.22-.03-.47-.11-.78-.22-.31-.09-.62-.22-.9-.36-.28-.14-.51-.31-.7-.5-.18-.19-.28-.41-.28-.66-.34-.78-.5-1.46-.5-2.05 0-1.07.36-1.94 1.11-2.63.75-.69 1.58-1.09 2.5-1.22h.13c1.16 0 1.91-.34 2.28-1.05.38-.7.6-1.47.69-2.3v-.06c0-.08 0-.13.04-.16.01-.02.03-.06.03-.16.03-.33.08-.64.13-.92.03-.28.1-.6.19-.94.08-1.23.39-2.06.92-2.5.53-.44 1.16-.66 1.86-.66.5 0 .98.08 1.45.22s.91.26 1.28.39c.66 0 1.11.19 1.36.53.25.36.38.8.38 1.33 0 .79-.17 1.64-.5 2.54-.09.09-.11.13-.06.13h.06v.06l-.06.07v.38c0 .7.05 1.21.16 1.54.09.34.41.5.91.5.25 0 .45-.02.61-.06 1.31 0 2.72-.11 4.22-.35 1.48-.22 2.94-.47 4.34-.72.81-.08 1.64-.22 2.47-.42.82-.21 1.65-.32 2.48-.32.83 0 1.49.17 1.99.5s.75.97.75 1.91l.43 2.86zm28.624 23v.56c0 .626-.06 1.236-.186 1.86-.125.626-.313 1.172-.563 1.672-.25.485-.57.89-.98 1.235-.42.328-.92.5-1.48.5-.54 0-1.03-.11-1.44-.313-.08-.047-.2-.062-.36-.062-.22 0-.42.03-.62.125-.22.078-.4.125-.56.125-1.32 0-1.98-.64-1.98-1.922 0-.328.03-.703.13-1.11.08-.406.13-.843.13-1.312 0-.25-.03-.484-.06-.703-.04-.22-.15-.438-.31-.656h-.42c-1.12.65-2.37 1.32-3.73 2.01-1.36.69-2.76 1.29-4.2 1.83-1.45.53-2.9.97-4.34 1.31-1.46.31-2.82.48-4.1.48-1.37 0-2.62-.22-3.78-.61-1.16-.42-2.16-1.16-2.99-2.19-.53-.66-.97-1.47-1.29-2.44-.34-.97-.5-2.02-.5-3.14 0-1.07.17-2.13.53-3.19.35-1.05.94-2.05 1.77-3 1.49-1.56 2.92-2.88 4.31-3.94 1.38-1.07 2.75-1.89 4.13-2.52 1.36-.63 2.72-1.05 4.1-1.3 1.36-.25 2.77-.38 4.22-.38h.3c1.74.04 3.3.23 4.69.56 1.38.33 2.91.76 4.57 1.3l.36-.13c.58-.53.91-1.19 1-1.96.08-.76.21-1.5.38-2.2l.12-.31c.03-.13.06-.22.06-.32 0-.16-.09-.33-.28-.49-.19-.16-.53-.33-1.03-.5h-.12l-.64-.09c-.23-.02-.45-.03-.65-.03h-1.3c-1.4 0-2.8.12-4.15.34-1.37.23-2.72.45-4.03.64-1.63.34-3.24.65-4.85.94-1.61.29-3.22.43-4.83.43-.62 0-1.15-.07-1.56-.22-.4-.14-.61-.44-.61-.91v-1.5c0-.81.07-1.5.22-2.03.14-.53.5-1.14 1.08-1.82 1.57-.38 3.13-.69 4.66-.96 1.53-.27 3.1-.5 4.71-.72l5.03-.63c1.74-.21 3.6-.43 5.58-.68.46-.08.99-.14 1.61-.19.63-.03 1.28-.06 1.99-.06.91 0 1.78.07 2.61.19.81.13 1.56.35 2.22.66.66.32 1.22.72 1.69 1.24.46.52.74 1.14.86 1.89-.65 1.56-1.17 2.94-1.51 4.13s-.64 2.27-.86 3.25c-.23 1-.4 1.94-.53 2.83-.12.89-.28 1.83-.44 2.82l-1.67 11.6zm-15.468-3.845c2.58-.984 4.875-2.313 6.907-3.97l.12-.31c-.13-.814-.72-1.392-1.77-1.736-1.06-.33-2.21-.5-3.44-.5-.35 0-.67.01-1 .03l-.99.09h-.25c-.71 0-1.64.22-2.81.62-1.19.42-2.33.93-3.46 1.56-1.13.62-2.09 1.29-2.91 2.01-.83.72-1.24 1.4-1.24 2.06 0 .65.51 1.2 1.55 1.61h1.04c2.89 0 5.63-.49 8.22-1.49zm54.344-21.953c-.297 1.25-.64 2.22-1.03 2.922-.407.703-.813 1.218-1.25 1.547-.438.35-.892.55-1.36.63-.47.1-.954.13-1.454.13h-.61c-.374 0-.718.03-1.03.07-.313.05-.61.14-.89.3l-5.407 1.86c-1.375.55-2.53 1.02-3.47 1.41-.952.39-1.764.77-2.42 1.14-.657.38-1.204.75-1.64 1.13-.44.38-.798.79-1.08 1.24-.25.25-.452.58-.593.97-.156.39-.266.83-.344 1.3-.094.47-.156.94-.187 1.39-.04.47-.06.88-.06 1.24-.12.38-.28.97-.43 1.75-.15.78-.32 1.69-.51 2.72-.19 1.03-.4 2.14-.65 3.31-.25 1.19-.51 2.36-.79 3.52-.34 1.28-.97 2.1-1.87 2.49-.9.36-1.92.55-3.03.55-.75 0-1.42-.17-2.01-.5-.59-.34-.89-.92-.89-1.73.16-1.28.41-2.83.74-4.67.33-1.84.69-3.76 1.08-5.79.39-2.03.79-4.08 1.22-6.14.4-2.06.81-3.95 1.2-5.64.39-1.69.73-3.13 1.03-4.28.28-1.16.5-1.86.62-2.11.19-2.31 1.53-3.47 4.03-3.47.41 0 .8.02 1.18.03.38.03.77.08 1.17.16.71.28 1.17.6 1.42.92.25.35.38.72.38 1.13 0 .58-.15 1.22-.44 1.92-.28.7-.42 1.42-.42 2.15 1.31-.56 2.95-1.41 4.89-2.53.91-.5 1.86-1 2.83-1.52s1.92-.99 2.87-1.42c.96-.44 1.88-.8 2.77-1.1.88-.28 1.67-.43 2.39-.43.78 0 1.52.27 2.22.78.7.52 1.28 1.38 1.75 2.57h.06l.06.13z"/><path d="M299.156 16.22c-.22.905-.844 1.64-1.89 2.202-1.063.562-2.25.828-3.563.828h-.562c-.78.094-1.87.188-3.25.28-1.39.11-2.71.19-4 .22-1.45.344-2.64.563-3.54.688-.9.125-1.67.218-2.29.28-.62.063-1.15.126-1.61.204-.45.094-.92.234-1.42.437l-.19.12c-.09.75-.17 1.44-.25 2.03-.07.59-.17 1.2-.29 1.79-.12.59-.26 1.22-.4 1.86-.15.64-.31 1.32-.47 2.06 0 .12-.04.37-.12.72-.09.34-.18.76-.28 1.23-.11.48-.2 1-.28 1.56-.08.56-.11 1.09-.11 1.62 0 .67.08 1.25.27 1.75s.55.83 1.1.98c.33.09.58.12.74.12.71 0 1.46-.2 2.27-.61s1.61-.92 2.39-1.55 1.5-1.28 2.19-1.99 1.28-1.35 1.78-1.94c.16-.28.41-.58.74-.89.33-.31.69-.6 1.1-.88.39-.27.78-.49 1.17-.66.39-.15.75-.25 1.09-.25.45 0 .89.1 1.33.28.44.19.82.44 1.16.72.56.6.97 1.16 1.2 1.69.22.53.34 1.03.34 1.47 0 .88-.39 1.81-1.16 2.8-.77 1-1.75 1.98-2.94 2.95-1.2.97-2.53 1.9-4 2.78-1.47.89-2.94 1.67-4.38 2.36-1.45.67-2.78 1.21-4 1.64-1.22.4-2.18.62-2.87.62-.75 0-1.45-.1-2.09-.28-.64-.19-1.12-.46-1.44-.79-.92-1.28-1.56-2.69-1.91-4.22-.34-1.54-.51-3.08-.51-4.64 0-1.86.14-3.65.46-5.36.31-1.72.67-3.5 1.09-5.38l.19-.55c.08-.45.16-.91.25-1.36.08-.45.19-.91.32-1.38l-.25-.37c-.22-.03-.47-.11-.78-.22-.31-.09-.62-.22-.9-.36-.28-.14-.51-.31-.7-.5-.19-.19-.28-.41-.28-.66-.35-.78-.5-1.46-.5-2.05 0-1.07.36-1.94 1.11-2.63.75-.69 1.58-1.09 2.5-1.22h.12c1.16 0 1.91-.34 2.28-1.05.38-.7.6-1.47.69-2.3v-.06c0-.08 0-.13.03-.16.01-.02.03-.06.03-.16.03-.33.08-.64.13-.92.03-.28.1-.6.19-.94.08-1.23.39-2.06.92-2.5.54-.44 1.16-.66 1.86-.66.5 0 .99.08 1.46.22s.91.26 1.28.39c.66 0 1.11.19 1.36.53.25.36.38.8.38 1.33 0 .79-.17 1.64-.5 2.54-.1.09-.11.13-.06.13h.07v.06l-.06.07v.38c0 .7.05 1.21.16 1.54.09.34.41.5.91.5.25 0 .46-.02.61-.06 1.31 0 2.72-.11 4.22-.35 1.49-.22 2.94-.47 4.35-.72.82-.08 1.64-.22 2.47-.42.83-.21 1.66-.32 2.49-.32.83 0 1.49.17 1.99.5s.75.97.75 1.91l.44 2.86z"/></g><path fill="#999" d="M19.21 61.644l.225-1.688H8.588v21.98h1.824v-10.09h7.583v-1.688h-7.583v-8.512h8.8zm9.858 3.276c-2.336 0-3.84 1.344-4.736 4.082l-.16-3.94h-1.6V81.94h1.856V71.61c.896-3.277 2.144-4.93 4.48-4.93.576 0 .99.06 1.47.188l.354-1.805c-.448-.08-1.024-.143-1.664-.143zm11.432.036c-4.357 0-6.912 3.408-6.912 8.56 0 5.153 2.46 8.528 6.88 8.528 4.388 0 6.944-3.405 6.944-8.588 0-5.245-2.492-8.5-6.912-8.5zm0 1.688c3.212 0 5.088 2.303 5.088 6.81 0 4.602-1.94 6.902-5.12 6.902s-5.056-2.33-5.056-6.84c0-4.6 1.94-6.872 5.088-6.872zm19.99-1.688c-2.664 0-4.696 1.436-6.126 3.353l-.192-3.25h-1.6v16.88h1.856V69.7c1.506-1.68 3.188-3.062 5.675-3.062 2.243 0 3.47 1.1 3.47 3.8v11.494h1.855v-11.74c0-3.173-1.632-5.238-4.94-5.238zm17.962 14.647c-.832.502-1.632.753-2.56.753-1.696 0-2.464-.94-2.464-2.855V66.65h4.096l.224-1.688h-4.32v-4.225l-1.856.224v4h-2.816v1.69h2.816V77.6c0 2.86 1.568 4.447 4.096 4.447 1.344 0 2.496-.405 3.52-1.114l-.736-1.326zm15.96-6.333c0-4.982-2.17-8.314-6.413-8.314-4 0-6.42 3.686-6.42 9.213 0 4.78 2.51 7.87 6.81 7.87 2.15 0 3.8-.83 5.36-2.1l-.87-1.02c-1.45.93-2.63 1.42-4.41 1.42-2.81 0-4.87-1.62-5.09-5.51h10.94c.03-.38.06-.98.06-1.58zm-1.824-.114h-9.176c.187-4.578 2.122-6.512 4.65-6.512 3.09 0 4.526 2.353 4.526 6.03v.482zm14.902-8.2c-2.664 0-4.696 1.436-6.126 3.353l-.192-3.25h-1.6v16.88h1.856V69.7c1.506-1.68 3.188-3.062 5.675-3.062 2.243 0 3.47 1.1 3.47 3.8v11.494h1.855v-11.74c0-3.173-1.632-5.238-4.94-5.238zm22.938-6.893h-1.856v9.286c-.948-1.2-2.4-2.4-4.643-2.4-4.05 0-6.35 3.7-6.35 8.62 0 5.07 2.2 8.46 6.05 8.46 2.4 0 3.98-1.37 4.96-3l.22 2.89h1.6V58.06zm-6.5 22.293c-2.78 0-4.516-2.35-4.516-6.808-.03-4.49 1.927-6.904 4.832-6.904 2.022 0 3.35 1.072 4.328 2.415v8.33c-1.137 1.89-2.464 2.96-4.643 2.96zm28.28-20.4c-4.11 0-6.62 2.306-6.62 5.307 0 3.062 1.765 4.515 6.414 5.814 4.18 1.176 5.586 2.227 5.586 4.794 0 2.85-2.434 4.49-5.723 4.49-2.74 0-4.572-.89-6.008-2.29l-1.133 1.21c1.73 1.68 3.955 2.77 7.175 2.77 4.72 0 7.51-2.61 7.51-6.23 0-3.74-2.31-5.1-6.52-6.28-4.22-1.14-5.48-2.13-5.48-4.29 0-2.22 1.98-3.59 4.86-3.59 2.16 0 3.73.59 5.43 1.98l1.07-1.2c-1.68-1.53-3.53-2.46-6.58-2.46zm18.244 19.647c-.832.502-1.632.753-2.56.753-1.696 0-2.464-.94-2.464-2.855V66.65h4.096l.224-1.688h-4.32v-4.225l-1.856.224v4h-2.816v1.69h2.816V77.6c0 2.86 1.568 4.447 4.096 4.447 1.344 0 2.496-.405 3.52-1.114l-.736-1.326zm14.976-9.165c0-3.47-1.664-5.482-5.472-5.482-1.76 0-3.424.413-5.22 1.206l.44 1.455c1.644-.616 3.18-.973 4.524-.973 2.783 0 3.872 1.2 3.872 3.89v1.622h-3.2c-4.288 0-6.784 2.155-6.784 5.192 0 2.567 1.795 4.696 5.024 4.696 2.24 0 4.03-1.005 5.216-2.82.256 1.67 1.12 2.497 2.592 2.82l.416-1.472c-.896-.354-1.408-.823-1.408-2.424v-7.71zm-6.496 9.918c-2.208 0-3.52-1.104-3.52-3.09 0-2.292 1.888-3.422 5.248-3.422h2.912v3.973c-1.057 1.628-2.53 2.54-4.64 2.54zm19.136-15.436c-2.336 0-3.84 1.344-4.736 4.082l-.16-3.94h-1.6V81.94h1.856V71.61c.896-3.277 2.144-4.93 4.48-4.93.576 0 .992.06 1.472.188l.352-1.805c-.448-.08-1.024-.143-1.664-.143zm12.384 14.683c-.832.502-1.632.753-2.56.753-1.696 0-2.464-.94-2.464-2.855V66.65h4.096l.224-1.688h-4.32v-4.225l-1.856.224v4h-2.816v1.69h2.816V77.6c0 2.86 1.568 4.447 4.096 4.447 1.344 0 2.496-.405 3.52-1.114l-.736-1.326zm15.96-6.333c0-4.982-2.17-8.314-6.413-8.314-4 0-6.42 3.686-6.42 9.213 0 4.78 2.51 7.87 6.81 7.87 2.15 0 3.8-.83 5.36-2.1l-.87-1.02c-1.45.93-2.63 1.42-4.41 1.42-2.81 0-4.87-1.62-5.09-5.51h10.94c.03-.38.06-.98.06-1.58zm-1.824-.114h-9.176c.187-4.578 2.122-6.512 4.65-6.512 3.09 0 4.526 2.353 4.526 6.03v.482zm13.48-8.236c-2.336 0-3.84 1.344-4.736 4.082l-.16-3.94h-1.6V81.94h1.856V71.61c.896-3.277 2.144-4.93 4.48-4.93.576 0 .992.06 1.472.188l.352-1.805c-.448-.08-1.024-.143-1.664-.143zm17.344 17.018V60.06h-1.824v21.88h1.824zm2.4-11.817l9.088-10.05h-2.21l-9.15 10.16 9.56 11.72h2.337l-9.63-11.81zm14.172-11.96c-.832 0-1.376.61-1.376 1.35s.544 1.35 1.376 1.35c.864 0 1.408-.61 1.408-1.34s-.544-1.34-1.408-1.34zm.444 23.78V65.06h-1.856v16.88h1.856zm14.024-2.33c-.832.5-1.632.76-2.56.76-1.696 0-2.464-.94-2.464-2.85V66.65h4.096l.224-1.688h-4.32V60.74l-1.856.223v4h-2.816v1.69h2.816V77.6c0 2.86 1.568 4.448 4.096 4.448 1.344 0 2.496-.405 3.52-1.114l-.736-1.326z"/></svg>
